Y:\Users\EMiller\ForSelim\Mono_v2_HybridSims\subject10walking1\OpenSimData\Dynamics\walking1\GRF_resultant_walking1_case_mono_2sphereshift.mot
version=1
nRows=30
nColumns=19
inDegrees=yes
endheader 
time	ground_force_right_vx	ground_force_right_vy	ground_force_right_vz	ground_force_right_px	ground_force_right_py	ground_force_right_pz	ground_torque_right_x	ground_torque_right_y	ground_torque_right_z	ground_force_left_vx	ground_force_left_vy	ground_force_left_vz	ground_force_left_px	ground_force_left_py	ground_force_left_pz	ground_torque_left_x	ground_torque_left_y	ground_torque_left_z	
          0.00000000	          9.23937121	         10.32396369	         -2.60211059	          0.08742626	          0.00000000	         -0.19317959	          0.00000000	         -0.00000000	          0.00000000	        121.59563854	        637.09872025	         17.77460353	         -0.58061708	          0.00000000	         -0.28069492	          0.00000000	          8.36190136	          0.00000000	
          0.01000000	         -4.45321796	         62.39471764	         -6.51944034	          0.08966899	          0.00000000	         -0.19359154	          0.00000000	         -0.00000011	          0.00000000	        124.83254910	        593.69928220	         14.38494645	         -0.56907053	          0.00000000	         -0.27484371	          0.00000000	          5.39608521	          0.00000000	
          0.02000000	         -8.68508651	        182.67260147	         -1.88962627	          0.09148318	          0.00000000	         -0.19358704	          0.00000000	         -0.00001459	          0.00000000	        123.59844092	        545.85937127	         10.62744125	         -0.55825905	          0.00000000	         -0.26951322	          0.00000000	          3.57218372	          0.00000000	
          0.03000000	        -22.45489239	        282.63728803	         -4.35909408	          0.09297092	          0.00000000	         -0.19386048	          0.00000000	         -0.00096647	          0.00000000	        118.23309267	        493.65259996	          7.07901851	         -0.54588185	          0.00000000	         -0.26298314	          0.00000000	          2.69221148	          0.00000000	
          0.04000000	        -33.97450814	        358.36868464	         -5.31223839	          0.09462952	          0.00000000	         -0.19412663	          0.00000000	         -0.02127603	          0.00000000	        109.05342045	        436.93268304	          5.66484620	         -0.53031214	          0.00000000	         -0.25378536	          0.00000000	          2.69546702	          0.00000000	
          0.05000000	        -44.62235334	        432.73320079	         -7.71779665	          0.09754329	          0.00000000	         -0.19444904	          0.00000000	         -0.10652554	          0.00000000	         98.48328060	        369.19949785	          3.16758024	         -0.51635047	          0.00000000	         -0.24409264	          0.00000000	          2.44814571	          0.00000000	
          0.06000000	        -56.77380866	        501.89415729	         -9.61122474	          0.10458151	          0.00000000	         -0.19480375	          0.00000000	         -0.44449060	          0.00000000	         85.66424886	        303.82709025	          0.20812548	         -0.51373215	          0.00000000	         -0.23857370	          0.00000000	          1.19506138	          0.00000000	
          0.07000000	        -72.48911010	        560.60391947	        -10.87175612	          0.11505819	          0.00000000	         -0.19518067	          0.00000000	         -1.22339426	          0.00000000	         68.06065397	        239.85247506	         -1.68871456	         -0.51198941	          0.00000000	         -0.23457199	          0.00000000	          0.38428050	          0.00000000	
          0.08000000	        -84.71267334	        605.38339627	        -12.30192848	          0.12457640	          0.00000000	         -0.19542142	          0.00000000	         -2.03144048	          0.00000000	         47.92972530	        180.07137797	         -2.71486028	         -0.51061274	          0.00000000	         -0.23248116	          0.00000000	          0.02258180	          0.00000000	
          0.09000000	        -88.49152627	        640.37328146	        -14.11165885	          0.13382890	          0.00000000	         -0.19568487	          0.00000000	         -1.52023426	          0.00000000	         32.19437848	        123.36515033	         -2.12023671	         -0.50902692	          0.00000000	         -0.23209631	          0.00000000	         -0.00357753	          0.00000000	
          0.10000000	        -98.61771660	        670.67853020	        -16.68465656	          0.14402271	          0.00000000	         -0.19647866	          0.00000000	         -0.71915933	          0.00000000	        -26.16798384	         24.96365306	         -6.05599573	         -0.51500442	          0.00000000	         -0.23389490	          0.00000000	          0.00111889	          0.00000000	
          0.11000000	       -106.14867736	        686.88936340	        -19.13411289	          0.14647184	          0.00000000	         -0.19686795	          0.00000000	         -1.70192772	          0.00000000	          0.00000000	         -0.00000000	         -0.00000000	          0.00000000	          0.00000000	          0.00000000	          0.00000000	          0.00000000	          0.00000000	
          0.12000000	       -108.13620790	        695.39931627	        -23.22196649	          0.14881722	          0.00000000	         -0.19685664	          0.00000000	         -1.39221782	          0.00000000	          0.00000000	         -0.00000000	         -0.00000000	          0.00000000	          0.00000000	          0.00000000	          0.00000000	          0.00000000	          0.00000000	
          0.13000000	       -105.24901336	        698.14902513	        -27.47336417	          0.15114523	          0.00000000	         -0.19661007	          0.00000000	         -3.34907041	          0.00000000	          0.00000000	         -0.00000000	         -0.00000000	          0.00000000	          0.00000000	          0.00000000	          0.00000000	          0.00000000	          0.00000000	
          0.14000000	       -106.84382982	        693.69763450	        -29.04726746	          0.15247778	          0.00000000	         -0.19601694	          0.00000000	          0.07209358	          0.00000000	          0.00000000	         -0.00000000	         -0.00000000	          0.00000000	          0.00000000	          0.00000000	          0.00000000	         -0.00000000	          0.00000000	
          0.15000000	       -101.02943473	        682.75313209	        -30.88451104	          0.15634359	          0.00000000	         -0.19551699	          0.00000000	         -3.35925183	          0.00000000	          0.00000000	         -0.00000000	         -0.00000000	          0.00000000	          0.00000000	          0.00000000	          0.00000000	         -0.00000000	          0.00000000	
          0.16000000	        -99.23822754	        666.53232262	        -31.97151463	          0.15802009	          0.00000000	         -0.19445094	          0.00000000	         -2.59779268	          0.00000000	          0.00000000	         -0.00000000	         -0.00000000	          0.00000000	          0.00000000	          0.00000000	          0.00000000	         -0.00000000	          0.00000000	
          0.17000000	        -89.13312610	        646.21231323	        -32.52546506	          0.16158224	          0.00000000	         -0.19349666	          0.00000000	         -1.48143695	          0.00000000	          0.00000004	         -0.00000002	         -0.00000000	          0.00000000	          0.00000000	          0.00000000	          0.00000000	         -0.00000001	          0.00000000	
          0.18000000	        -81.10376676	        624.22036626	        -31.94877472	          0.16399461	          0.00000000	         -0.19246238	          0.00000000	         -0.82757787	          0.00000000	         -0.00000139	          0.00000048	          0.00000010	         -0.23706629	          0.00000000	         -0.23926723	          0.00000000	         -0.00000000	          0.00000000	
          0.19000000	        -73.17097553	        599.95780941	        -31.31209093	          0.16671002	          0.00000000	         -0.19137892	          0.00000000	         -1.22879454	          0.00000000	         -0.00000174	          0.00000058	          0.00000014	         -0.19107165	          0.00000000	         -0.24331275	          0.00000000	         -0.00000000	          0.00000000	
          0.20000000	        -64.80491340	        574.52190122	        -30.20415827	          0.16935983	          0.00000000	         -0.19023906	          0.00000000	         -1.20477301	          0.00000000	         -0.00000376	          0.00000119	          0.00000033	         -0.14533027	          0.00000000	         -0.24775866	          0.00000000	         -0.00000000	          0.00000000	
          0.21000000	        -56.31916924	        549.31074584	        -28.58743749	          0.17212783	          0.00000000	         -0.18907699	          0.00000000	         -1.70939525	          0.00000000	         -0.00001537	          0.00000470	          0.00000148	         -0.10008566	          0.00000000	         -0.25246583	          0.00000000	         -0.00000000	          0.00000000	
          0.22000000	        -47.56097678	        525.05284801	        -26.58577050	          0.17499113	          0.00000000	         -0.18787274	          0.00000000	         -2.83382010	          0.00000000	         -0.00010985	          0.00003255	          0.00001116	         -0.05539127	          0.00000000	         -0.25730287	          0.00000000	         -0.00000000	          0.00000000	
          0.23000000	        -39.58009952	        502.44782824	        -24.74938627	          0.17779334	          0.00000000	         -0.18664368	          0.00000000	         -3.79037267	          0.00000000	         -0.00116977	          0.00033787	          0.00012202	         -0.01110639	          0.00000000	         -0.26213017	          0.00000000	         -0.00000000	          0.00000000	
          0.24000000	        -30.22259768	        482.62287428	        -22.05328423	          0.18137124	          0.00000000	         -0.18545008	          0.00000000	         -3.98027621	          0.00000000	         -0.01507698	          0.00426816	          0.00157877	          0.03314581	          0.00000000	         -0.26690803	          0.00000000	         -0.00000000	          0.00000000	
          0.25000000	        -24.44146598	        463.77879146	        -20.73122140	          0.18271471	          0.00000000	         -0.18430432	          0.00000000	         -4.55326979	          0.00000000	         -0.17017138	          0.04755999	          0.01726376	          0.07793502	          0.00000000	         -0.27154813	          0.00000000	         -0.00000000	          0.00000000	
          0.26000000	        -16.68715920	        451.42228370	        -17.09329840	          0.18806212	          0.00000000	         -0.18326696	          0.00000000	         -3.69538128	          0.00000000	         -1.40676859	          0.38884363	          0.13671923	          0.12395298	          0.00000000	         -0.27613149	          0.00000000	         -0.00000001	          0.00000000	
          0.27000000	        -11.71047101	        435.73571831	        -17.36580005	          0.18625337	          0.00000000	         -0.18285832	          0.00000000	         -1.42119549	          0.00000000	         -6.15755733	          1.69797481	          0.53876812	          0.17162588	          0.00000000	         -0.28048503	          0.00000000	         -0.00000011	          0.00000000	
          0.28000000	         -5.08335983	        435.48565839	        -13.75355600	          0.19530849	          0.00000000	         -0.18191460	          0.00000000	         -1.28985242	          0.00000000	        -14.51886077	          4.00030758	          1.16835504	          0.22123015	          0.00000000	         -0.28469585	          0.00000000	         -0.00000075	          0.00000000	
          0.29000000	         -4.07306591	        425.08341185	        -14.00695098	          0.19343812	          0.00000000	         -0.18199456	          0.00000000	          0.81783859	          0.00000000	        -16.67814728	          4.64949915	          1.12476607	          0.27262577	          0.00000000	         -0.28855587	          0.00000000	         -0.00000161	          0.00000000	
